<svg width="499.99999999999994" height="499.99999999999994" xmlns="http://www.w3.org/2000/svg" xml:space="preserve" version="1.1">

 <g>
  <title>Layer 1</title>
  <path id="svg_1" fill="#0f0f10" d="m437,148.9c0.8,0.4 1.8,0.6 2.7,0.6c2.3,0 4.5,-1.3 5.5,-3.4c1.5,-3 0.3,-6.6 -2.7,-8.1c-14.3,-7.1 -40.9,-7.2 -42,-7.2c-3.4,0 -6.1,2.7 -6.1,6.1s2.7,6.1 6.1,6.1c6.9,0 26.9,1.1 36.5,5.9zm-193.9,-78.4c0,-0.2 0.1,-0.4 0.3,-0.4c13.2,-2 26.5,-2.6 39.8,-1.9c19,1.3 32.9,6.1 41.1,14.3c2.4,2.4 6.3,2.4 8.7,0c2.4,-2.3 2.5,-6.1 0.3,-8.5l-0.2,-0.2c-23.3,-23.2 -71.7,-18.8 -91.4,-15.8c-6.2,0.9 -10.8,6.3 -10.8,12.6l0,14.1c0.1,3.4 3,6 6.3,5.8c3.2,-0.1 5.7,-2.7 5.8,-5.8l0,-14.2l0.1,0z" class="st0"/>
  <path id="svg_2" fill="#0f0f10" d="m86,255.3c0,-5.1 2.9,-9.8 7.5,-12.1l20.6,-10.2l7.1,6.8c9.9,9.4 25.5,9.4 35.5,0l7.1,-6.8l6.7,3.3c-3.2,5.1 -4.9,11 -4.9,17l0,31.7c4.2,2.2 8.3,4.6 12.2,7.3l0,-38.9c0,-8.4 5.3,-15.9 13.1,-18.8l39.7,-14.4l16.5,24.8c2.1,3.2 5.5,5.2 9.3,5.6c0.4,0 0.8,0.1 1.3,0.1c3.4,0 6.6,-1.3 9,-3.7l10.1,-10.1l0,63.8c0,3.4 2.7,6.1 6.1,6.1c3.4,0 6.1,-2.7 6.1,-6.1l0,-63.8l10.1,10.1c2.4,2.4 5.6,3.7 9,3.7c0.4,0 0.9,0 1.3,-0.1c3.8,-0.4 7.2,-2.4 9.3,-5.6l16.6,-24.8l39.7,14.4c7.9,2.9 13.1,10.4 13.2,18.8l0,47.1c0,3.4 2.7,6.1 6.1,6.1c3.4,0 6.1,-2.7 6.1,-6.1l0,-47.1c-0.1,-8.4 -3.3,-16.4 -9.1,-22.4l1.5,-0.4c2,-0.5 3.9,-1.2 5.7,-2.1l15.6,15.6l0,56.3c0,3.4 2.7,6.1 6.1,6.1c3.4,0 6.1,-2.7 6.1,-6.1l0,-56.4l15.5,-15.6c0.8,0.4 1.7,0.8 2.6,1l25.3,7.2c5.8,1.7 9.8,7 9.8,13l0,50.6c0,3.4 2.7,6.1 6.1,6.1c3.4,0 6.1,-2.7 6.1,-6.1l0,-50.7c0.5,-11.2 -7.2,-21.4 -18.2,-24.5l-25.3,-7.2c-1.1,-0.3 -1.9,-1.3 -1.9,-2.5l0,-8.3c2.1,-1.4 4.1,-3 5.9,-4.8c8.8,-8.5 13.8,-20.3 13.8,-32.6l0,-11.6l2.5,-4.9c2.7,-5.4 4.1,-11.3 4.1,-17.4l0,-31.5c0,-3.3 -2.6,-6 -5.9,-6.1l-59.7,0c-21.5,0 -38.8,17.4 -38.9,38.9l0,0.4c0,5 1.2,10 3.4,14.5l3.1,6.3l0,10c0,15.3 7.3,29.6 19.6,38.6l0,8.9c0,1.4 0,1.9 -5.1,3.4l-12.4,3.5l-35.7,-13c0.1,-1.7 -0.5,-3.4 -1.7,-4.7l-11.4,-12l0,-20.1c1.2,-1 2.4,-2 3.6,-3.1c14.4,-13.6 22.6,-32.4 22.6,-52.2l0,-16c4.3,-9.3 6.6,-19.4 6.6,-29.7l0,-65.7c0,-3.3 -2.6,-6 -5.9,-6.1l-91.8,0c-32.3,0 -58.5,26.2 -58.5,58.5l0,13.1c0,10.3 2.2,20.4 6.6,29.7l0,13.9c-0.1,22 9.5,42.8 26.2,57.1l0,20.5l-11.4,12c-1.2,1.3 -1.8,3 -1.7,4.7l-37.7,13.7c-2.7,1 -5.3,2.3 -7.6,4l-5.9,-3c17.6,-7.7 23.2,-18.4 23.4,-18.9c0.9,-1.7 0.9,-3.8 0,-5.5c-4.4,-8.9 -5,-25 -5.4,-38c-0.1,-4.3 -0.3,-8.4 -0.5,-12.1c-2.1,-29.4 -24.4,-51.5 -51.9,-51.5s-49.6,22 -51.6,51.4c-0.3,3.7 -0.4,7.8 -0.5,12.1c-0.4,12.9 -1,29.2 -5.4,38c-0.9,1.7 -0.9,3.8 0,5.5c0.3,0.5 5.9,11.3 23.4,18.9l-16.4,8.2c-8.7,4.3 -14.3,13.2 -14.3,23l0,22c4,-1.3 8.1,-2.4 12.2,-3.3l0,-18.7zm334.2,-22.3l-14,-13.9c0.2,-1.2 0.4,-2.4 0.4,-3.6l0,-2.6c3.9,1.3 8,2 12.2,2.1l1.4,0c4.6,0 9.1,-0.7 13.5,-2l0,2.5c0,1.2 0.2,2.4 0.4,3.6l-13.9,13.9zm-33.2,-65l0,-11.4c0,-0.9 -0.2,-1.9 -0.6,-2.7l-3.8,-7.6c-1.4,-2.8 -2.1,-5.9 -2.1,-9l0,-0.3c0,-14.7 11.9,-26.6 26.6,-26.6l52.7,0l0,25.4c0,4.1 -1,8.2 -2.8,11.9l-3,6.1c-0.4,0.8 -0.6,1.8 -0.6,2.7l0,13.1c0,9 -3.7,17.6 -10.2,23.9c-6.4,6.3 -15.1,9.7 -24.1,9.4c-17.8,-0.6 -32.1,-16.2 -32.1,-34.9zm-129,70.2c-0.1,0.1 -0.2,0.1 -0.3,0.1c-0.2,0 -0.3,-0.1 -0.3,-0.2l-19,-28.5l6.1,-6.5l28.9,19.7l-15.4,15.4zm24.8,-23.6l-33.2,-22.6l0,-11.5c8.7,4.8 18.4,7.6 28.4,8.2c1.6,0.1 3.2,0.2 4.8,0.2c11.5,0 22.9,-2.8 33.1,-8.1l0,11.2l-33.1,22.6zm25.5,23.5c0,0.1 -0.1,0.2 -0.3,0.2c-0.1,0 -0.2,0 -0.3,-0.1l-15.4,-15.4l28.9,-19.7l6.1,6.5l-19,28.5zm-84.8,-123.1l0,-15.1c0,-0.9 -0.2,-1.9 -0.6,-2.7c-3.9,-8 -6,-16.8 -6,-25.7l0,-13.1c0,-25.5 20.7,-46.2 46.3,-46.3l85.5,0l0,59.3c0,8.9 -2.1,17.7 -6,25.7c-0.4,0.8 -0.6,1.8 -0.6,2.7l0,17.4c0.1,16.4 -6.7,32.1 -18.7,43.3c-1.5,1.4 -3.1,2.7 -4.7,4l-0.1,0.1c-11.4,8.6 -25.5,12.8 -39.7,11.9c-31.1,-2 -55.4,-29 -55.4,-61.5zm-75.3,116c-5.2,5 -13.4,5 -18.6,0l-5.7,-5.4c1,-1.8 1.5,-3.9 1.5,-6l0,-6.5a44.744,44.744 0 0 0 27.1,0l0,6.5c0,2.1 0.5,4.2 1.5,6l-5.8,5.4zm36,-29.1c-2.4,2.9 -8.2,8.4 -19.6,12.6l0,-7.3c7.2,-5 12.8,-11.9 16.1,-19.9c0.6,4.9 1.8,9.8 3.5,14.6zm-85.5,-39.8c0.1,-4.2 0.3,-8.2 0.5,-11.6c0.7,-10.7 5,-20.7 12.4,-28.5c14.6,-15.1 38.6,-15.5 53.7,-0.9l0.9,0.9c7.3,7.8 11.7,17.9 12.4,28.5c0.2,3.4 0.4,7.4 0.5,11.6l0,1.1c-6.7,-10.3 -16.9,-17.8 -30.2,-22.1c-7.5,-2.4 -15.4,-3.7 -23.3,-3.7c-1.6,0 -3.1,0.7 -4.2,1.9l-11.1,11.5c-2.3,2.4 -2.2,6.3 0.2,8.7c2.4,2.3 6.3,2.2 8.7,-0.2l9.2,-9.6c7.9,0.4 33.4,3.4 43.3,25.1c-2.8,18.1 -19.7,30.5 -37.8,27.7c-16.2,-2.5 -28.1,-16.4 -28.1,-32.8c0,-3.3 -2.6,-6 -5.9,-6.1l-0.2,0c-0.3,0 -0.7,0 -1,0.1c-0.1,-0.6 -0.1,-1.1 0,-1.6zm-5.2,39.6c1.7,-4.7 2.9,-9.6 3.5,-14.6c3.4,8 9,15 16.2,19.9l0,7.4c-11.5,-4.2 -17.2,-9.7 -19.7,-12.7z" class="st0"/>
  <circle id="svg_3" fill="#0f0f10" r="13.2" cy="377.5" cx="390.1" class="st0"/>
  <circle id="svg_4" fill="#0f0f10" r="13.2" cy="377.5" cx="438.2" class="st0"/>
  <circle id="svg_5" fill="#0f0f10" r="13.2" cy="377.5" cx="339.5" class="st0"/>
  <path id="svg_6" fill="#0f0f10" d="m479.8,313.7l-264.2,0c-3.9,0 -7.2,3.2 -7.2,7.1c0,1.4 0.4,2.8 1.2,4l0.1,0.1c1.3,2 3.6,3.2 5.9,3.2l264.1,0c2.6,0 4.8,2.1 4.8,4.8l0,89.1c0,2.6 -2.1,4.8 -4.8,4.8l-250.7,0c-3,0 -5.7,1.9 -6.7,4.8l-0.1,0.1c-1.3,3.7 0.6,7.8 4.3,9.1c0.8,0.3 1.6,0.4 2.4,0.4l250.8,0c10.6,0 19.2,-8.6 19.2,-19.2l0,-89.1c0.1,-10.6 -8.5,-19.2 -19.1,-19.2z" class="st0"/>
  <path id="svg_7" fill="#0f0f10" d="m211.3,347.9c-5.5,-13 -13.5,-24.8 -23.5,-34.8c-10.1,-9.9 -21.9,-17.9 -34.9,-23.4c-13.4,-5.8 -27.9,-8.7 -42.5,-8.6c-14.6,-0.1 -29.1,2.9 -42.5,8.6c-26.2,11.1 -47.1,31.9 -58.2,58.2a109.27,109.27 0 0 0 0,85.1c5.5,13 13.5,24.8 23.4,34.9c10,10 21.8,18 34.8,23.5c13.4,5.8 27.9,8.7 42.5,8.6c14.6,0.1 29.1,-2.9 42.5,-8.6c26.3,-11.1 47.3,-32.1 58.4,-58.4c11.5,-27.2 11.5,-57.9 0,-85.1zm-7.2,82.1c-10.4,24.4 -29.9,43.9 -54.3,54.3a97.58,97.58 0 0 1 -39.5,8c-13.6,0.1 -27,-2.6 -39.5,-8c-24.4,-10.4 -43.9,-29.9 -54.3,-54.3a101.47,101.47 0 0 1 0,-79.1c5.1,-12.1 12.6,-23 21.9,-32.3c9.3,-9.2 20.3,-16.6 32.4,-21.8c12.5,-5.4 25.9,-8.1 39.5,-8c13.6,-0.1 27,2.6 39.5,8c12.1,5.2 23.1,12.5 32.4,21.8c9.3,9.2 16.7,20.2 21.9,32.3c10.7,25.3 10.7,53.8 0,79.1z" class="st0"/>
  <path id="svg_8" fill="#0f0f10" d="m17.3,390.4c0,9 1.2,17.9 3.8,26.5c2.4,8.4 6.1,16.3 10.8,23.6c4.6,7.2 10.2,13.8 16.6,19.5c6.4,5.7 13.6,10.5 21.4,14.1l-44.9,-121c-5.1,11.8 -7.8,24.5 -7.7,37.3zm66.8,89.6c4.2,1.2 8.5,2.1 12.9,2.8c14.9,2.2 30.2,0.7 44.4,-4.5l-29.3,-78.8l-28,80.5zm109,-127.7c0,1.8 -0.1,3.5 -0.3,5.4c-0.9,8.3 -2.6,16.6 -5.3,24.5c-2.5,7.3 -4.9,14.3 -7.3,21c-1,2.8 -2.6,7.5 -4.8,14c-2.2,6.5 -4.5,13.3 -7,20.4c-2.5,7.1 -4.8,13.8 -7,20.1c-2.2,6.3 -3.8,10.8 -4.8,13.5c7,-4 13.4,-8.9 19,-14.6c5.6,-5.7 10.6,-12.1 14.6,-19c4.1,-7 7.3,-14.5 9.5,-22.3c6.3,-22.9 3.7,-47.4 -7.4,-68.4c0.7,1.8 0.8,3.6 0.8,5.4z" class="st0"/>
  <path id="svg_9" fill="#0f0f10" d="m163.5,423.9c1.8,-6 3.2,-10.9 4.4,-14.8c1.3,-4.3 2.3,-7.8 3,-10.5c1.8,-5.6 2.5,-11.5 2.1,-17.4c-0.2,-5 -1.7,-9.8 -4.1,-14.1c-1.3,-2.6 -2.8,-5.1 -4.4,-7.5c-2,-3.1 -3.7,-6.3 -5.1,-9.6c-1.5,-3.3 -2.5,-6.7 -3,-10.3c-0.5,-3.2 0,-6.5 1.5,-9.4c2.2,-3.8 4.6,-6.3 7.3,-7.4c2.6,-1.1 5.5,-1.5 8.3,-1.1c-8.4,-7.7 -18.1,-13.8 -28.6,-18c-10.9,-4.4 -22.6,-6.6 -34.4,-6.5c-15.7,-0.2 -31.2,3.8 -44.9,11.4c-13.3,7.3 -24.6,17.7 -32.9,30.4c4,0.2 8.5,0.2 13.5,0c5.5,-0.2 11,-0.7 16.5,-1.5c1,0 2,0.4 2.8,1c0.8,0.6 1.3,1.5 1.5,2.5c0.3,2.3 -0.8,3.7 -3.5,4c-1.7,0.3 -3.5,0.5 -5.3,0.6c-1.7,0.1 -3.4,0.2 -5.3,0.4l34,100.3l20.5,-60.5l-14.7,-39.5c-3.2,-0.3 -5.6,-0.6 -7.4,-0.9s-2.7,-0.4 -2.9,-0.4c-1,-0.2 -1.9,-0.7 -2.5,-1.5c-0.7,-0.8 -0.8,-1.8 -0.5,-2.8c0.2,-1 0.7,-1.9 1.5,-2.5c0.8,-0.6 1.8,-0.8 2.8,-0.5l3.5,0.5l9.9,0.8c5.1,0.5 10.3,0.5 15.4,0c3.7,-0.5 10.4,-1 20.3,-1.5c1,0 2,0.4 2.8,1c0.8,0.6 1.3,1.5 1.5,2.5c0.3,2.3 -0.8,3.7 -3.5,4c-1.7,0.3 -3.5,0.5 -5.3,0.6c-1.7,0.1 -3.3,0.2 -5,0.4l33.8,100.3c2.4,-8.9 4.6,-16.5 6.4,-22.5z" class="st0"/>
 </g>
</svg>